<svg xmlns="http://www.w3.org/2000/svg" xmlns:xlink="http://www.w3.org/1999/xlink" width="1344" zoomAndPan="magnify" viewBox="0 0 1008 1295.99994" height="1728" preserveAspectRatio="xMidYMid meet" version="1.0"><defs><clipPath id="03c0ccb127"><path d="M 300 234.085938 L 620 234.085938 L 620 398 L 300 398 Z M 300 234.085938 " clip-rule="nonzero"/></clipPath><clipPath id="972cd707da"><path d="M 261.359375 341 L 656.609375 341 L 656.609375 533.335938 L 261.359375 533.335938 Z M 261.359375 341 " clip-rule="nonzero"/></clipPath></defs><rect x="-100.8" width="1209.6" fill="#ffffff" y="-129.599994" height="1555.199927" fill-opacity="1"/><rect x="-100.8" width="1209.6" fill="#ffffff" y="-129.599994" height="1555.199927" fill-opacity="1"/><rect x="-100.8" width="1209.6" fill="#011b3d" y="-129.599994" height="1555.199927" fill-opacity="1"/><path fill="#ffffff" d="M 482.171875 383.058594 C 478.945312 381.910156 475.949219 380.332031 473.183594 378.320312 C 473.933594 378.519531 474.691406 378.660156 475.464844 378.734375 C 475.695312 378.75 475.851562 378.648438 475.933594 378.429688 C 476.011719 378.207031 475.953125 378.035156 475.757812 377.90625 C 473.917969 376.679688 472.355469 375.167969 471.074219 373.371094 C 472.191406 374.28125 473.429688 374.980469 474.789062 375.464844 C 476.148438 375.949219 477.546875 376.191406 478.992188 376.191406 C 479.214844 376.183594 479.355469 376.070312 479.410156 375.851562 C 479.464844 375.632812 479.398438 375.464844 479.203125 375.351562 C 475.449219 373.097656 472.4375 370.097656 470.171875 366.359375 C 472.164062 367.871094 474.375 368.917969 476.8125 369.503906 C 477.042969 369.558594 477.210938 369.484375 477.320312 369.273438 C 477.433594 369.0625 477.398438 368.878906 477.21875 368.722656 C 474.03125 366.011719 471.332031 362.886719 469.113281 359.34375 C 469.929688 359.691406 470.777344 359.921875 471.65625 360.042969 C 471.875 360.0625 472.03125 359.976562 472.128906 359.785156 C 472.226562 359.582031 472.191406 359.410156 472.023438 359.261719 C 470.59375 357.933594 469.398438 356.417969 468.4375 354.71875 C 469.714844 355.582031 471.082031 356.261719 472.542969 356.761719 C 472.757812 356.835938 472.933594 356.78125 473.0625 356.589844 C 473.191406 356.402344 473.183594 356.222656 473.035156 356.046875 C 471.0625 353.71875 469.414062 351.179688 468.089844 348.429688 C 466.769531 345.679688 465.816406 342.804688 465.230469 339.8125 C 465.15625 339.605469 465.007812 339.5 464.789062 339.5 C 464.570312 339.5 464.421875 339.605469 464.347656 339.8125 C 463.761719 342.804688 462.808594 345.679688 461.488281 348.429688 C 460.164062 351.179688 458.515625 353.71875 456.542969 356.046875 C 456.394531 356.222656 456.386719 356.402344 456.515625 356.589844 C 456.644531 356.78125 456.820312 356.835938 457.035156 356.761719 C 458.492188 356.261719 459.863281 355.582031 461.140625 354.71875 C 460.179688 356.421875 458.984375 357.933594 457.550781 359.261719 C 457.382812 359.410156 457.347656 359.582031 457.441406 359.785156 C 457.542969 359.972656 457.699219 360.058594 457.914062 360.042969 C 458.796875 359.925781 459.648438 359.691406 460.464844 359.34375 C 458.25 362.890625 455.546875 366.015625 452.355469 368.722656 C 452.175781 368.878906 452.140625 369.0625 452.25 369.269531 C 452.359375 369.480469 452.53125 369.558594 452.761719 369.503906 C 455.199219 368.921875 457.414062 367.871094 459.40625 366.359375 C 457.140625 370.101562 454.128906 373.097656 450.375 375.351562 C 450.179688 375.464844 450.109375 375.632812 450.167969 375.851562 C 450.222656 376.070312 450.363281 376.183594 450.585938 376.191406 C 450.707031 376.191406 450.828125 376.191406 450.949219 376.191406 C 452.328125 376.140625 453.664062 375.875 454.957031 375.390625 C 456.25 374.90625 457.433594 374.230469 458.503906 373.359375 C 457.222656 375.160156 455.660156 376.671875 453.820312 377.898438 C 453.625 378.027344 453.566406 378.199219 453.644531 378.421875 C 453.71875 378.644531 453.875 378.746094 454.113281 378.726562 C 454.882812 378.652344 455.644531 378.515625 456.394531 378.3125 C 453.625 380.324219 450.628906 381.90625 447.40625 383.050781 C 447.171875 383.128906 447.074219 383.292969 447.105469 383.535156 C 447.136719 383.773438 447.277344 383.90625 447.519531 383.929688 C 447.886719 383.957031 448.265625 383.972656 448.664062 383.972656 C 450.703125 383.964844 452.691406 383.636719 454.621094 382.976562 C 453.039062 384.402344 451.300781 385.605469 449.40625 386.585938 C 449.199219 386.691406 449.121094 386.863281 449.175781 387.089844 C 449.230469 387.320312 449.371094 387.433594 449.609375 387.441406 C 451.28125 387.5 452.949219 387.40625 454.605469 387.15625 C 452.191406 391.019531 449.148438 393.0625 445.765625 393.0625 C 444.042969 392.941406 442.421875 392.476562 440.898438 391.664062 C 439.378906 390.851562 438.089844 389.761719 437.035156 388.398438 C 441.066406 389.585938 445.167969 389.921875 449.339844 389.410156 C 449.582031 389.375 449.710938 389.234375 449.726562 388.992188 C 449.742188 388.75 449.632812 388.59375 449.398438 388.523438 C 446.15625 387.546875 443.078125 386.195312 440.164062 384.464844 C 437.25 382.738281 434.585938 380.683594 432.175781 378.308594 C 434.238281 378.605469 436.308594 378.722656 438.390625 378.648438 C 438.625 378.644531 438.765625 378.53125 438.820312 378.300781 C 438.875 378.074219 438.800781 377.90625 438.589844 377.796875 C 435.96875 376.441406 433.585938 374.746094 431.441406 372.71875 C 434.074219 373.707031 436.796875 374.203125 439.609375 374.203125 C 440.105469 374.203125 440.582031 374.183594 441.046875 374.144531 C 441.289062 374.128906 441.425781 374.003906 441.460938 373.765625 C 441.492188 373.523438 441.390625 373.359375 441.160156 373.277344 C 436.804688 371.738281 432.785156 369.578125 429.09375 366.796875 C 430.25 367.148438 431.425781 367.378906 432.625 367.488281 C 432.859375 367.507812 433.015625 367.40625 433.09375 367.183594 C 433.171875 366.964844 433.113281 366.792969 432.917969 366.664062 C 430.320312 364.933594 428.15625 362.765625 426.429688 360.167969 C 427.910156 361.46875 429.570312 362.46875 431.414062 363.167969 C 433.253906 363.867188 435.160156 364.222656 437.132812 364.238281 C 437.359375 364.226562 437.496094 364.113281 437.550781 363.894531 C 437.605469 363.675781 437.535156 363.511719 437.34375 363.394531 C 434.867188 361.90625 432.613281 360.132812 430.585938 358.074219 C 428.558594 356.019531 426.820312 353.742188 425.367188 351.246094 C 428.039062 353.390625 431.042969 354.863281 434.371094 355.667969 C 434.605469 355.726562 434.773438 355.648438 434.882812 355.4375 C 434.992188 355.226562 434.957031 355.046875 434.78125 354.890625 C 430.570312 351.328125 427.03125 347.199219 424.152344 342.5 C 425.304688 343.03125 426.503906 343.382812 427.761719 343.550781 C 427.976562 343.570312 428.132812 343.484375 428.230469 343.292969 C 428.324219 343.089844 428.289062 342.917969 428.125 342.769531 C 426.148438 340.933594 424.519531 338.832031 423.242188 336.457031 C 424.996094 337.691406 426.886719 338.65625 428.914062 339.351562 C 429.128906 339.421875 429.300781 339.363281 429.429688 339.179688 C 429.554688 338.992188 429.546875 338.8125 429.40625 338.640625 C 426.871094 335.652344 424.757812 332.398438 423.0625 328.871094 C 421.363281 325.347656 420.140625 321.664062 419.386719 317.824219 C 419.367188 317.628906 419.285156 317.46875 419.136719 317.335938 C 418.992188 317.207031 418.820312 317.140625 418.625 317.144531 C 418.4375 317.140625 418.277344 317.199219 418.136719 317.320312 C 418 317.445312 417.921875 317.597656 417.902344 317.78125 C 417.152344 321.628906 415.929688 325.320312 414.230469 328.851562 C 412.535156 332.386719 410.417969 335.648438 407.882812 338.640625 C 407.734375 338.8125 407.726562 338.996094 407.855469 339.183594 C 407.984375 339.371094 408.160156 339.429688 408.375 339.351562 C 410.402344 338.652344 412.292969 337.6875 414.046875 336.457031 C 412.769531 338.832031 411.140625 340.9375 409.160156 342.769531 C 408.992188 342.917969 408.957031 343.089844 409.050781 343.292969 C 409.152344 343.480469 409.308594 343.566406 409.523438 343.550781 C 410.777344 343.382812 411.980469 343.03125 413.128906 342.5 C 410.253906 347.199219 406.710938 351.328125 402.503906 354.890625 C 402.328125 355.046875 402.292969 355.226562 402.402344 355.4375 C 402.507812 355.648438 402.679688 355.726562 402.910156 355.667969 C 406.242188 354.863281 409.246094 353.390625 411.917969 351.246094 C 410.464844 353.742188 408.726562 356.015625 406.695312 358.074219 C 404.667969 360.132812 402.417969 361.90625 399.941406 363.394531 C 399.746094 363.511719 399.679688 363.675781 399.734375 363.894531 C 399.789062 364.113281 399.929688 364.226562 400.15625 364.238281 C 402.125 364.21875 404.03125 363.855469 405.871094 363.15625 C 407.710938 362.457031 409.371094 361.460938 410.855469 360.167969 C 409.125 362.765625 406.964844 364.929688 404.367188 366.664062 C 404.171875 366.792969 404.113281 366.964844 404.1875 367.183594 C 404.269531 367.402344 404.425781 367.503906 404.660156 367.488281 C 405.855469 367.378906 407.03125 367.148438 408.183594 366.796875 C 404.496094 369.578125 400.472656 371.738281 396.121094 373.277344 C 395.886719 373.359375 395.785156 373.519531 395.816406 373.765625 C 395.851562 374.003906 395.992188 374.128906 396.230469 374.144531 C 396.695312 374.183594 397.1875 374.203125 397.671875 374.203125 C 400.488281 374.207031 403.21875 373.707031 405.851562 372.710938 C 403.703125 374.738281 401.316406 376.433594 398.695312 377.796875 C 398.480469 377.902344 398.402344 378.070312 398.457031 378.304688 C 398.511719 378.535156 398.65625 378.648438 398.894531 378.648438 C 400.972656 378.707031 403.042969 378.59375 405.105469 378.308594 C 402.695312 380.683594 400.03125 382.738281 397.117188 384.464844 C 394.203125 386.195312 391.125 387.546875 387.878906 388.523438 C 387.644531 388.59375 387.535156 388.75 387.554688 388.992188 C 387.570312 389.234375 387.699219 389.375 387.941406 389.410156 C 392.113281 389.921875 396.214844 389.585938 400.25 388.398438 C 399.191406 389.761719 397.902344 390.851562 396.382812 391.664062 C 394.859375 392.476562 393.238281 392.941406 391.515625 393.0625 C 388.183594 393.0625 385.070312 390.964844 382.679688 387.15625 C 384.332031 387.402344 386 387.496094 387.671875 387.441406 C 387.902344 387.429688 388.046875 387.3125 388.097656 387.085938 C 388.148438 386.859375 388.070312 386.691406 387.863281 386.585938 C 385.96875 385.601562 384.226562 384.394531 382.644531 382.964844 C 384.574219 383.632812 386.5625 383.96875 388.605469 383.964844 C 388.996094 383.964844 389.371094 383.953125 389.75 383.921875 C 389.992188 383.902344 390.132812 383.769531 390.164062 383.527344 C 390.195312 383.285156 390.097656 383.125 389.863281 383.046875 C 386.640625 381.898438 383.644531 380.320312 380.875 378.308594 C 381.628906 378.507812 382.390625 378.644531 383.167969 378.71875 C 383.394531 378.726562 383.550781 378.625 383.636719 378.414062 C 383.710938 378.195312 383.652344 378.023438 383.460938 377.894531 C 381.621094 376.667969 380.0625 375.15625 378.777344 373.359375 C 379.851562 374.226562 381.035156 374.902344 382.328125 375.386719 C 383.621094 375.867188 384.957031 376.136719 386.335938 376.1875 C 386.453125 376.1875 386.574219 376.1875 386.695312 376.1875 C 386.921875 376.179688 387.0625 376.066406 387.117188 375.847656 C 387.171875 375.628906 387.101562 375.460938 386.90625 375.347656 C 383.152344 373.09375 380.144531 370.097656 377.878906 366.351562 C 379.871094 367.867188 382.082031 368.914062 384.515625 369.496094 C 384.746094 369.550781 384.914062 369.472656 385.027344 369.265625 C 385.136719 369.054688 385.101562 368.871094 384.925781 368.714844 C 381.730469 366.011719 379.027344 362.882812 376.8125 359.335938 C 377.632812 359.683594 378.480469 359.917969 379.363281 360.035156 C 379.582031 360.058594 379.738281 359.972656 379.835938 359.777344 C 379.929688 359.578125 379.894531 359.402344 379.730469 359.257812 C 378.296875 357.929688 377.101562 356.414062 376.140625 354.714844 C 377.417969 355.578125 378.785156 356.257812 380.246094 356.753906 C 380.460938 356.832031 380.632812 356.773438 380.761719 356.585938 C 380.894531 356.398438 380.882812 356.214844 380.738281 356.039062 C 378.761719 353.710938 377.113281 351.171875 375.792969 348.421875 C 374.46875 345.671875 373.515625 342.800781 372.933594 339.804688 C 372.859375 339.597656 372.710938 339.496094 372.492188 339.496094 C 372.269531 339.496094 372.125 339.597656 372.046875 339.804688 C 371.464844 342.800781 370.511719 345.671875 369.191406 348.421875 C 367.867188 351.171875 366.222656 353.710938 364.246094 356.039062 C 364.101562 356.214844 364.089844 356.398438 364.222656 356.585938 C 364.351562 356.773438 364.523438 356.832031 364.742188 356.753906 C 366.199219 356.253906 367.570312 355.570312 368.851562 354.710938 C 367.886719 356.410156 366.6875 357.925781 365.253906 359.257812 C 365.089844 359.402344 365.054688 359.578125 365.152344 359.777344 C 365.253906 359.960938 365.410156 360.046875 365.621094 360.035156 C 366.5 359.917969 367.351562 359.683594 368.171875 359.339844 C 365.949219 362.878906 363.25 366.007812 360.0625 368.714844 C 359.882812 368.871094 359.851562 369.054688 359.960938 369.265625 C 360.070312 369.472656 360.238281 369.550781 360.46875 369.496094 C 362.902344 368.914062 365.117188 367.863281 367.109375 366.351562 C 364.84375 370.09375 361.832031 373.09375 358.078125 375.347656 C 357.882812 375.460938 357.8125 375.628906 357.867188 375.847656 C 357.921875 376.066406 358.0625 376.179688 358.289062 376.1875 C 358.410156 376.1875 358.53125 376.1875 358.648438 376.1875 C 360.027344 376.136719 361.363281 375.867188 362.65625 375.382812 C 363.949219 374.902344 365.132812 374.226562 366.207031 373.359375 C 364.921875 375.15625 363.363281 376.667969 361.519531 377.894531 C 361.328125 378.023438 361.269531 378.195312 361.34375 378.414062 C 361.425781 378.632812 361.585938 378.734375 361.816406 378.71875 C 362.585938 378.644531 363.347656 378.507812 364.09375 378.308594 C 361.328125 380.320312 358.335938 381.898438 355.109375 383.046875 C 354.878906 383.125 354.78125 383.285156 354.808594 383.527344 C 354.84375 383.769531 354.980469 383.902344 355.222656 383.921875 C 355.589844 383.953125 355.96875 383.964844 356.367188 383.964844 C 358.410156 383.960938 360.394531 383.628906 362.324219 382.972656 C 360.742188 384.394531 359.003906 385.597656 357.113281 386.578125 C 356.90625 386.6875 356.828125 386.851562 356.878906 387.078125 C 356.929688 387.308594 357.070312 387.425781 357.300781 387.433594 C 358.828125 387.476562 360.347656 387.402344 361.863281 387.207031 C 358.101562 390.859375 353.707031 393.441406 348.683594 394.949219 C 348.449219 395.019531 348.339844 395.171875 348.355469 395.417969 C 348.371094 395.660156 348.5 395.796875 348.742188 395.835938 C 351.882812 396.222656 354.976562 395.992188 358.027344 395.144531 C 357.085938 396.199219 356.089844 397.199219 355.039062 398.140625 C 354.910156 398.257812 354.863281 398.398438 354.894531 398.566406 C 354.929688 398.738281 355.027344 398.851562 355.191406 398.90625 L 383.96875 408.933594 C 384.0625 408.957031 384.152344 408.957031 384.246094 408.933594 C 384.617188 408.824219 384.992188 408.742188 385.378906 408.695312 L 394.285156 407.550781 C 395.757812 407.347656 397.113281 407.65625 398.347656 408.484375 C 398.546875 408.613281 398.734375 408.59375 398.902344 408.425781 C 400.265625 407.097656 401.832031 406.082031 403.597656 405.378906 C 405.367188 404.671875 407.199219 404.332031 409.105469 404.355469 L 425.027344 404.355469 C 427.851562 404.332031 430.457031 405.078125 432.839844 406.589844 L 449.445312 416.929688 C 449.519531 416.972656 449.601562 416.996094 449.6875 416.996094 L 470.804688 416.996094 C 470.972656 416.992188 471.097656 416.921875 471.1875 416.777344 C 471.273438 416.632812 471.273438 416.484375 471.195312 416.335938 C 470.789062 415.5625 470.484375 414.753906 470.273438 413.90625 C 470.257812 413.84375 470.234375 413.789062 470.195312 413.738281 C 470.007812 413.496094 469.816406 413.238281 469.644531 412.976562 C 469.765625 412.964844 469.863281 412.910156 469.941406 412.8125 C 470.019531 412.71875 470.050781 412.609375 470.035156 412.488281 C 469.898438 411.117188 470.03125 409.773438 470.429688 408.457031 C 470.828125 407.136719 471.464844 405.945312 472.339844 404.878906 C 474.765625 401.828125 476.957031 398.613281 478.914062 395.238281 C 478.964844 395.152344 478.988281 395.058594 478.976562 394.957031 C 479.070312 394.914062 479.140625 394.851562 479.195312 394.765625 C 479.742188 393.8125 480.285156 392.871094 480.808594 391.917969 C 480.867188 391.8125 480.878906 391.703125 480.851562 391.589844 C 480.820312 391.472656 480.753906 391.382812 480.65625 391.320312 C 478.769531 390.113281 477.019531 388.738281 475.402344 387.195312 C 476.917969 387.394531 478.4375 387.46875 479.960938 387.421875 C 480.199219 387.417969 480.34375 387.300781 480.394531 387.070312 C 480.449219 386.84375 480.371094 386.675781 480.164062 386.566406 C 478.273438 385.585938 476.535156 384.382812 474.953125 382.957031 C 476.882812 383.617188 478.867188 383.949219 480.90625 383.953125 C 481.296875 383.953125 481.679688 383.9375 482.050781 383.910156 C 482.292969 383.886719 482.429688 383.757812 482.464844 383.515625 C 482.480469 383.289062 482.382812 383.136719 482.171875 383.058594 Z M 482.171875 383.058594 " fill-opacity="1" fill-rule="nonzero"/><g clip-path="url(#03c0ccb127)"><path fill="#ffffff" d="M 437.191406 256.050781 C 436.027344 249.453125 431.824219 236.390625 431.050781 236.527344 C 430.273438 236.660156 430.800781 250.375 431.96875 256.96875 C 433.058594 263.121094 438.277344 262.210938 437.191406 256.050781 Z M 413.40625 261.9375 C 411.117188 255.648438 404.703125 243.503906 403.96875 243.773438 C 403.234375 244.042969 406.128906 257.453125 408.425781 263.746094 C 410.570312 269.625 415.546875 267.8125 413.40625 261.9375 Z M 461.632812 254.378906 C 461.632812 247.679688 459.769531 234.085938 458.988281 234.085938 C 458.207031 234.085938 456.335938 247.679688 456.335938 254.378906 C 456.328125 260.632812 461.632812 260.632812 461.632812 254.378906 Z M 391.011719 271.855469 C 387.660156 266.054688 379.238281 255.21875 378.558594 255.605469 C 377.878906 255.996094 383.074219 268.703125 386.425781 274.503906 C 389.550781 279.921875 394.140625 277.273438 391.007812 271.855469 Z M 486.007812 256.96875 C 487.171875 250.375 487.699219 236.660156 486.925781 236.527344 C 486.152344 236.390625 481.949219 249.453125 480.789062 256.050781 C 479.691406 262.210938 484.914062 263.121094 486 256.96875 Z M 370.6875 285.507812 C 366.375 280.382812 356.191406 271.164062 355.59375 271.667969 C 354.992188 272.171875 362.3125 283.785156 366.621094 288.914062 C 370.640625 293.703125 374.703125 290.300781 370.679688 285.507812 Z M 551.363281 288.914062 C 555.671875 283.785156 562.992188 272.171875 562.390625 271.667969 C 561.789062 271.164062 551.613281 280.382812 547.3125 285.507812 C 543.265625 290.300781 547.328125 293.703125 551.355469 288.914062 Z M 531.558594 274.503906 C 534.910156 268.703125 540.101562 255.996094 539.421875 255.605469 C 538.742188 255.21875 530.320312 266.054688 526.96875 271.855469 C 523.828125 277.273438 528.417969 279.921875 531.550781 274.503906 Z M 509.550781 263.746094 C 511.839844 257.457031 514.746094 244.042969 514.007812 243.773438 C 513.273438 243.503906 506.863281 255.640625 504.570312 261.9375 C 502.417969 267.8125 507.398438 269.625 509.542969 263.746094 Z M 327.832031 344.234375 C 321.53125 341.949219 308.097656 339.042969 307.828125 339.777344 C 307.558594 340.511719 319.71875 346.917969 326.019531 349.207031 C 331.898438 351.347656 333.710938 346.375 327.824219 344.234375 Z M 610.152344 339.777344 C 609.882812 339.042969 596.453125 341.945312 590.152344 344.234375 C 584.265625 346.375 586.078125 351.347656 591.964844 349.207031 C 598.261719 346.917969 610.414062 340.519531 610.144531 339.777344 Z M 598.300781 314.40625 C 597.917969 313.726562 585.1875 318.910156 579.378906 322.257812 C 573.953125 325.382812 576.605469 329.96875 582.03125 326.839844 C 587.835938 323.492188 598.683594 315.082031 598.292969 314.40625 Z M 597.859375 372.957031 C 604.464844 371.796875 617.542969 367.597656 617.410156 366.828125 C 617.277344 366.058594 603.546875 366.582031 596.9375 367.746094 C 590.765625 368.828125 591.683594 374.050781 597.851562 372.957031 Z M 599.535156 392.078125 C 593.273438 392.078125 593.269531 397.367188 599.535156 397.367188 C 606.238281 397.367188 619.851562 395.507812 619.851562 394.722656 C 619.851562 393.9375 606.234375 392.078125 599.527344 392.078125 Z M 349.621094 306.542969 C 354.417969 310.558594 357.828125 306.5 353.023438 302.480469 C 347.890625 298.179688 336.257812 290.871094 335.757812 291.464844 C 335.253906 292.058594 344.480469 302.230469 349.621094 306.542969 Z M 564.945312 302.480469 C 560.144531 306.5 563.550781 310.558594 568.347656 306.542969 C 573.488281 302.230469 582.714844 292.066406 582.210938 291.464844 C 581.703125 290.863281 570.085938 298.179688 564.945312 302.480469 Z M 335.945312 326.839844 C 341.371094 329.96875 344.023438 325.382812 338.597656 322.257812 C 332.789062 318.910156 320.0625 313.726562 319.675781 314.40625 C 319.289062 315.085938 330.136719 323.492188 335.945312 326.839844 Z M 321.039062 367.746094 C 314.429688 366.582031 300.699219 366.058594 300.566406 366.828125 C 300.433594 367.597656 313.511719 371.796875 320.117188 372.957031 C 326.289062 374.050781 327.207031 368.828125 321.039062 367.746094 Z M 458.988281 270.417969 C 457.050781 270.414062 455.113281 270.457031 453.179688 270.542969 C 451.246094 270.632812 449.3125 270.765625 447.386719 270.945312 C 445.457031 271.121094 443.535156 271.34375 441.617188 271.613281 C 439.699219 271.878906 437.785156 272.191406 435.882812 272.550781 C 433.980469 272.90625 432.085938 273.308594 430.203125 273.753906 C 428.316406 274.199219 426.445312 274.6875 424.582031 275.21875 C 422.71875 275.753906 420.871094 276.328125 419.035156 276.945312 C 417.203125 277.566406 415.382812 278.226562 413.578125 278.929688 C 411.773438 279.636719 409.988281 280.382812 408.21875 281.167969 C 406.449219 281.957031 404.699219 282.785156 402.972656 283.652344 C 401.242188 284.519531 399.53125 285.429688 397.84375 286.378906 C 396.15625 287.328125 394.492188 288.316406 392.851562 289.339844 C 391.207031 290.367188 389.59375 291.433594 388 292.535156 C 386.410156 293.636719 384.84375 294.773438 383.304688 295.949219 C 381.765625 297.125 380.257812 298.335938 378.773438 299.578125 C 377.292969 300.824219 375.84375 302.105469 374.421875 303.417969 C 373 304.730469 371.609375 306.074219 370.25 307.453125 C 368.890625 308.832031 367.5625 310.242188 366.269531 311.679688 C 364.976562 313.121094 363.71875 314.589844 362.496094 316.089844 C 361.269531 317.585938 360.082031 319.113281 358.929688 320.667969 C 357.777344 322.222656 356.660156 323.800781 355.582031 325.40625 C 354.503906 327.015625 353.464844 328.644531 352.460938 330.300781 C 351.457031 331.953125 350.496094 333.632812 349.570312 335.332031 C 348.648438 337.03125 347.761719 338.75 346.921875 340.492188 C 346.078125 342.234375 345.273438 343.992188 344.511719 345.769531 C 343.753906 347.550781 343.03125 349.34375 342.355469 351.15625 C 341.679688 352.96875 341.042969 354.796875 340.453125 356.636719 C 339.859375 358.476562 339.3125 360.332031 338.808594 362.199219 C 338.304688 364.066406 337.84375 365.945312 337.425781 367.832031 C 337.007812 369.722656 336.636719 371.621094 336.308594 373.527344 C 335.980469 375.433594 335.695312 377.34375 335.457031 379.261719 C 335.21875 381.183594 335.027344 383.105469 334.878906 385.035156 C 334.84375 385.296875 334.910156 385.53125 335.074219 385.738281 C 335.234375 385.945312 335.449219 386.066406 335.710938 386.097656 C 335.972656 386.128906 336.207031 386.0625 336.414062 385.902344 C 336.621094 385.738281 336.742188 385.527344 336.773438 385.265625 C 337.285156 382.242188 337.90625 379.242188 338.636719 376.265625 C 339.371094 373.285156 340.207031 370.339844 341.152344 367.421875 C 342.097656 364.503906 343.148438 361.625 344.304688 358.78125 C 345.457031 355.941406 346.714844 353.144531 348.070312 350.394531 C 349.429688 347.644531 350.886719 344.949219 352.441406 342.304688 C 353.992188 339.660156 355.640625 337.074219 357.382812 334.550781 C 359.125 332.023438 360.957031 329.566406 362.878906 327.175781 C 364.796875 324.78125 366.804688 322.460938 368.894531 320.214844 C 370.980469 317.96875 373.148438 315.800781 375.398438 313.710938 C 377.644531 311.621094 379.964844 309.613281 382.355469 307.691406 C 384.75 305.769531 387.207031 303.9375 389.734375 302.195312 C 392.261719 300.453125 394.847656 298.800781 397.492188 297.246094 C 400.136719 295.691406 402.835938 294.234375 405.589844 292.871094 C 408.339844 291.511719 411.136719 290.253906 413.980469 289.097656 C 416.824219 287.9375 419.707031 286.886719 422.625 285.9375 C 425.546875 284.988281 428.496094 284.148438 431.476562 283.414062 C 434.457031 282.675781 437.460938 282.050781 440.488281 281.535156 C 443.515625 281.019531 446.558594 280.613281 449.613281 280.316406 C 452.667969 280.019531 455.730469 279.832031 458.800781 279.757812 C 461.871094 279.683594 464.941406 279.722656 468.007812 279.871094 C 471.074219 280.019531 474.132812 280.277344 477.179688 280.644531 C 480.226562 281.015625 483.257812 281.496094 486.269531 282.085938 C 489.285156 282.675781 492.273438 283.371094 495.234375 284.179688 C 498.195312 284.984375 501.125 285.898438 504.023438 286.914062 C 506.917969 287.933594 509.773438 289.054688 512.589844 290.28125 C 515.402344 291.507812 518.171875 292.832031 520.886719 294.257812 C 523.605469 295.683594 526.269531 297.207031 528.878906 298.824219 C 531.484375 300.445312 534.03125 302.15625 536.511719 303.957031 C 538.996094 305.761719 541.410156 307.652344 543.757812 309.632812 C 546.101562 311.609375 548.375 313.671875 550.570312 315.816406 C 552.765625 317.957031 554.878906 320.175781 556.914062 322.472656 C 558.949219 324.769531 560.898438 327.136719 562.761719 329.574219 C 562.910156 329.789062 563.117188 329.921875 563.375 329.964844 C 563.636719 330.011719 563.871094 329.960938 564.089844 329.808594 C 564.304688 329.660156 564.4375 329.457031 564.484375 329.199219 C 564.53125 328.9375 564.480469 328.703125 564.328125 328.484375 C 562.933594 326.273438 561.472656 324.105469 559.941406 321.988281 C 558.410156 319.867188 556.816406 317.796875 555.152344 315.777344 C 553.492188 313.757812 551.769531 311.792969 549.984375 309.882812 C 548.195312 307.96875 546.351562 306.117188 544.449219 304.324219 C 542.546875 302.527344 540.589844 300.796875 538.578125 299.125 C 536.5625 297.453125 534.5 295.847656 532.386719 294.304688 C 530.273438 292.765625 528.113281 291.292969 525.90625 289.886719 C 523.699219 288.480469 521.449219 287.148438 519.15625 285.882812 C 516.867188 284.621094 514.535156 283.429688 512.171875 282.316406 C 509.804688 281.199219 507.402344 280.160156 504.972656 279.191406 C 502.539062 278.226562 500.078125 277.339844 497.589844 276.53125 C 495.101562 275.722656 492.589844 274.988281 490.054688 274.339844 C 487.519531 273.6875 484.96875 273.117188 482.398438 272.625 C 479.824219 272.132812 477.242188 271.726562 474.644531 271.398438 C 472.046875 271.070312 469.445312 270.824219 466.832031 270.660156 C 464.21875 270.496094 461.605469 270.414062 458.988281 270.417969 Z M 458.988281 270.417969 " fill-opacity="1" fill-rule="evenodd"/></g><path fill="#ffffff" d="M 535.019531 336.835938 L 514.910156 317.414062 C 514.640625 317.164062 514.320312 317.027344 513.957031 317.003906 C 513.570312 316.960938 513.210938 317.03125 512.875 317.214844 L 503 322.726562 L 477.324219 297.875 C 477.160156 297.738281 476.980469 297.632812 476.78125 297.5625 C 476.582031 297.488281 476.378906 297.453125 476.164062 297.453125 C 475.953125 297.453125 475.75 297.488281 475.550781 297.5625 C 475.351562 297.632812 475.167969 297.738281 475.007812 297.875 L 440.761719 330.515625 C 440.066406 331.179688 441.121094 331.660156 441.460938 331.363281 L 467.78125 313.105469 L 461.75 324.105469 C 461.617188 324.34375 461.75 324.613281 462.070312 324.738281 C 462.410156 324.875 462.71875 324.828125 463 324.59375 L 470.921875 316.972656 L 475.453125 330.492188 C 475.527344 330.613281 475.628906 330.710938 475.753906 330.78125 C 475.878906 330.851562 476.011719 330.886719 476.152344 330.886719 C 476.296875 330.886719 476.429688 330.851562 476.554688 330.78125 C 476.679688 330.710938 476.78125 330.613281 476.855469 330.492188 L 481.390625 316.972656 L 489.308594 324.59375 C 489.589844 324.828125 489.898438 324.875 490.234375 324.738281 C 490.558594 324.613281 490.691406 324.34375 490.558594 324.105469 L 484.53125 313.105469 L 507.714844 332.792969 C 507.949219 332.976562 508.207031 333.027344 508.492188 332.949219 C 508.78125 332.878906 508.96875 332.707031 508.984375 332.488281 L 509.460938 325.65625 L 519.117188 332.957031 C 519.40625 333.15625 519.710938 333.183594 520.03125 333.039062 C 520.324219 332.898438 520.4375 332.636719 520.304688 332.410156 L 515.9375 324.976562 L 533.933594 337.507812 C 534.253906 337.707031 534.582031 337.714844 534.910156 337.527344 C 534.976562 337.5 535.027344 337.457031 535.070312 337.398438 C 535.113281 337.34375 535.140625 337.28125 535.152344 337.210938 C 535.164062 337.140625 535.15625 337.074219 535.132812 337.007812 C 535.109375 336.941406 535.070312 336.882812 535.019531 336.835938 Z M 535.019531 336.835938 " fill-opacity="1" fill-rule="evenodd"/><g clip-path="url(#972cd707da)"><path fill="#ffffff" d="M 322.378906 491.109375 C 322.332031 491.003906 322.253906 490.929688 322.148438 490.878906 C 322.042969 490.832031 321.9375 490.824219 321.824219 490.859375 C 316.988281 492.269531 312.074219 493.332031 307.082031 494.046875 C 302.09375 494.757812 297.078125 495.113281 292.035156 495.113281 C 286.996094 495.113281 281.980469 494.757812 276.992188 494.046875 C 272 493.332031 267.085938 492.269531 262.25 490.859375 C 262.136719 490.824219 262.03125 490.832031 261.925781 490.878906 C 261.820312 490.925781 261.742188 491.003906 261.695312 491.109375 C 261.652344 491.214844 261.648438 491.324219 261.683594 491.433594 C 261.71875 491.542969 261.789062 491.625 261.886719 491.683594 C 264.207031 492.882812 266.589844 493.945312 269.039062 494.859375 C 271.484375 495.777344 273.976562 496.546875 276.515625 497.164062 C 279.054688 497.78125 281.621094 498.246094 284.21875 498.558594 C 286.8125 498.871094 289.414062 499.027344 292.03125 499.027344 C 294.644531 499.027344 297.246094 498.871094 299.839844 498.558594 C 302.4375 498.246094 305.003906 497.78125 307.542969 497.164062 C 310.082031 496.546875 312.574219 495.777344 315.019531 494.859375 C 317.46875 493.945312 319.851562 492.882812 322.171875 491.683594 C 322.273438 491.625 322.34375 491.542969 322.382812 491.433594 C 322.421875 491.328125 322.421875 491.21875 322.378906 491.109375 Z M 554.472656 513.851562 C 549.605469 515.269531 544.664062 516.335938 539.644531 517.054688 C 534.628906 517.769531 529.582031 518.128906 524.515625 518.128906 C 519.445312 518.128906 514.402344 517.769531 509.382812 517.054688 C 504.363281 516.335938 499.421875 515.269531 494.554688 513.851562 C 494.445312 513.816406 494.335938 513.820312 494.230469 513.871094 C 494.125 513.917969 494.050781 513.996094 494.003906 514.105469 C 493.957031 514.210938 493.953125 514.316406 493.988281 514.425781 C 494.027344 514.535156 494.09375 514.621094 494.195312 514.675781 C 496.527344 515.886719 498.925781 516.953125 501.382812 517.875 C 503.84375 518.796875 506.351562 519.570312 508.90625 520.195312 C 511.457031 520.816406 514.039062 521.285156 516.648438 521.597656 C 519.257812 521.914062 521.878906 522.070312 524.507812 522.070312 C 527.136719 522.070312 529.753906 521.914062 532.363281 521.597656 C 534.972656 521.285156 537.554688 520.816406 540.109375 520.195312 C 542.660156 519.570312 545.167969 518.796875 547.628906 517.875 C 550.089844 516.953125 552.484375 515.886719 554.816406 514.675781 C 554.917969 514.617188 554.984375 514.535156 555.023438 514.425781 C 555.058594 514.316406 555.054688 514.210938 555.007812 514.105469 C 554.964844 514 554.890625 513.925781 554.789062 513.878906 C 554.6875 513.828125 554.585938 513.820312 554.476562 513.851562 Z M 615.894531 507.28125 C 611.898438 508.445312 607.839844 509.320312 603.722656 509.910156 C 599.601562 510.496094 595.460938 510.792969 591.296875 510.792969 C 587.136719 510.792969 582.996094 510.496094 578.875 509.910156 C 574.753906 509.320312 570.695312 508.445312 566.703125 507.28125 C 566.589844 507.246094 566.480469 507.253906 566.375 507.300781 C 566.269531 507.351562 566.195312 507.425781 566.148438 507.535156 C 566.105469 507.640625 566.101562 507.75 566.136719 507.859375 C 566.175781 507.96875 566.246094 508.050781 566.347656 508.109375 C 568.269531 509.105469 570.242188 509.980469 572.265625 510.742188 C 574.292969 511.5 576.355469 512.136719 578.457031 512.648438 C 580.558594 513.160156 582.683594 513.546875 584.832031 513.804688 C 586.980469 514.0625 589.132812 514.191406 591.296875 514.191406 C 593.460938 514.191406 595.617188 514.0625 597.765625 513.804688 C 599.914062 513.546875 602.039062 513.160156 604.140625 512.648438 C 606.242188 512.136719 608.304688 511.5 610.328125 510.742188 C 612.355469 509.980469 614.328125 509.105469 616.246094 508.109375 C 616.347656 508.050781 616.414062 507.96875 616.453125 507.859375 C 616.488281 507.75 616.484375 507.640625 616.4375 507.535156 C 616.390625 507.433594 616.316406 507.355469 616.214844 507.308594 C 616.109375 507.257812 616.003906 507.25 615.894531 507.28125 Z M 656.265625 491.101562 C 656.21875 490.996094 656.144531 490.921875 656.039062 490.871094 C 655.933594 490.824219 655.824219 490.820312 655.714844 490.851562 C 650.875 492.265625 645.960938 493.324219 640.972656 494.039062 C 635.980469 494.75 630.96875 495.105469 625.925781 495.105469 C 620.886719 495.105469 615.871094 494.75 610.878906 494.039062 C 605.890625 493.324219 600.976562 492.265625 596.136719 490.851562 C 596.027344 490.816406 595.917969 490.824219 595.8125 490.871094 C 595.707031 490.917969 595.632812 490.996094 595.585938 491.101562 C 595.542969 491.207031 595.539062 491.316406 595.574219 491.425781 C 595.609375 491.53125 595.675781 491.617188 595.777344 491.675781 C 598.097656 492.875 600.480469 493.9375 602.925781 494.851562 C 605.375 495.769531 607.867188 496.539062 610.40625 497.15625 C 612.945312 497.773438 615.511719 498.238281 618.105469 498.550781 C 620.703125 498.863281 623.304688 499.019531 625.917969 499.019531 C 628.53125 499.019531 631.136719 498.863281 633.730469 498.550781 C 636.328125 498.238281 638.894531 497.773438 641.433594 497.15625 C 643.972656 496.539062 646.464844 495.769531 648.914062 494.851562 C 651.359375 493.9375 653.742188 492.875 656.0625 491.675781 C 656.164062 491.621094 656.234375 491.539062 656.273438 491.429688 C 656.3125 491.324219 656.3125 491.21875 656.269531 491.109375 Z M 482.003906 526.800781 C 478.261719 527.894531 474.464844 528.714844 470.609375 529.265625 C 466.753906 529.816406 462.875 530.089844 458.980469 530.089844 C 455.085938 530.089844 451.210938 529.816406 447.351562 529.265625 C 443.496094 528.714844 439.699219 527.894531 435.960938 526.800781 C 435.847656 526.765625 435.738281 526.773438 435.632812 526.820312 C 435.523438 526.867188 435.449219 526.945312 435.402344 527.054688 C 435.355469 527.160156 435.351562 527.269531 435.390625 527.378906 C 435.429688 527.492188 435.5 527.574219 435.605469 527.628906 C 437.402344 528.5625 439.25 529.382812 441.148438 530.097656 C 443.046875 530.808594 444.980469 531.402344 446.949219 531.882812 C 448.917969 532.363281 450.910156 532.722656 452.921875 532.964844 C 454.933594 533.207031 456.953125 533.328125 458.980469 533.328125 C 461.007812 533.328125 463.027344 533.207031 465.039062 532.964844 C 467.050781 532.722656 469.042969 532.363281 471.011719 531.882812 C 472.980469 531.402344 474.914062 530.808594 476.8125 530.097656 C 478.707031 529.382812 480.554688 528.5625 482.355469 527.628906 C 482.453125 527.574219 482.523438 527.488281 482.558594 527.378906 C 482.597656 527.269531 482.589844 527.164062 482.546875 527.058594 C 482.5 526.957031 482.421875 526.882812 482.320312 526.835938 C 482.21875 526.789062 482.113281 526.78125 482.007812 526.808594 Z M 581.539062 489.808594 C 575.527344 491.5625 569.425781 492.882812 563.226562 493.769531 C 557.027344 494.652344 550.800781 495.097656 544.539062 495.097656 C 538.277344 495.097656 532.046875 494.652344 525.851562 493.769531 C 519.652344 492.882812 513.546875 491.5625 507.539062 489.808594 C 507.425781 489.773438 507.320312 489.78125 507.210938 489.828125 C 507.105469 489.878906 507.03125 489.957031 506.984375 490.0625 C 506.941406 490.167969 506.9375 490.277344 506.972656 490.386719 C 507.007812 490.496094 507.078125 490.578125 507.175781 490.636719 C 510.050781 492.125 513.003906 493.4375 516.035156 494.574219 C 519.070312 495.710938 522.160156 496.664062 525.304688 497.429688 C 528.453125 498.195312 531.632812 498.773438 534.847656 499.15625 C 538.0625 499.542969 541.292969 499.738281 544.53125 499.738281 C 547.769531 499.738281 550.996094 499.542969 554.210938 499.15625 C 557.429688 498.773438 560.609375 498.195312 563.753906 497.429688 C 566.902344 496.664062 569.992188 495.710938 573.023438 494.574219 C 576.058594 493.4375 579.011719 492.125 581.886719 490.636719 C 581.988281 490.582031 582.058594 490.496094 582.097656 490.386719 C 582.136719 490.277344 582.132812 490.167969 582.085938 490.058594 C 582.039062 489.953125 581.964844 489.875 581.859375 489.828125 C 581.75 489.777344 581.640625 489.773438 581.53125 489.808594 Z M 351.484375 479.707031 C 352 479.707031 352.496094 479.738281 353.011719 479.738281 L 446.078125 479.738281 C 445.414062 480.40625 444.773438 481.117188 444.144531 481.871094 L 430.359375 498.417969 C 426.527344 497.628906 422.78125 496.734375 419.222656 495.632812 C 419.113281 495.597656 419.003906 495.601562 418.898438 495.648438 C 418.792969 495.695312 418.71875 495.773438 418.671875 495.878906 C 418.625 495.984375 418.621094 496.09375 418.65625 496.199219 C 418.695312 496.308594 418.761719 496.394531 418.859375 496.449219 C 421.949219 498.050781 425.121094 499.460938 428.375 500.683594 C 431.632812 501.90625 434.949219 502.925781 438.328125 503.75 C 441.710938 504.574219 445.125 505.195312 448.578125 505.609375 C 452.03125 506.023438 455.5 506.230469 458.976562 506.230469 C 462.457031 506.230469 465.921875 506.023438 469.375 505.609375 C 472.828125 505.195312 476.246094 504.574219 479.625 503.75 C 483.003906 502.925781 486.320312 501.90625 489.578125 500.683594 C 492.832031 499.460938 496.003906 498.050781 499.09375 496.449219 C 499.199219 496.398438 499.269531 496.316406 499.3125 496.203125 C 499.351562 496.09375 499.347656 495.984375 499.300781 495.875 C 499.253906 495.765625 499.175781 495.6875 499.070312 495.640625 C 498.960938 495.589844 498.851562 495.585938 498.738281 495.625 C 486.332031 499.316406 473.652344 501.191406 460.707031 501.246094 L 463.46875 497.933594 C 465.175781 495.925781 466.59375 493.730469 467.714844 491.347656 C 468.832031 488.964844 469.621094 486.476562 470.074219 483.882812 L 470.609375 481.023438 C 470.691406 480.59375 470.773438 480.160156 470.859375 479.734375 L 564.941406 479.734375 C 565.464844 479.734375 565.957031 479.710938 566.46875 479.707031 C 613.304688 479.515625 649.179688 478.5 649.179688 477.257812 C 649.179688 476.367188 630.460938 475.582031 602.414062 475.148438 C 646.625 462.960938 657.207031 428.664062 629.183594 399.808594 C 629 399.625 628.785156 399.496094 628.535156 399.429688 C 628.285156 399.359375 628.035156 399.359375 627.785156 399.425781 C 627.535156 399.492188 627.320312 399.617188 627.136719 399.800781 C 626.953125 399.988281 626.832031 400.203125 626.769531 400.453125 C 623.378906 413.855469 599.34375 422.253906 573.640625 422.253906 L 536.152344 422.253906 C 538.273438 413.488281 539.398438 404.589844 539.53125 395.570312 C 550.730469 394.214844 560.910156 399.914062 563.859375 390.394531 C 566.699219 381.054688 568.238281 371.503906 568.472656 361.742188 C 568.59375 360.042969 568.496094 358.355469 568.183594 356.683594 L 568.117188 356.398438 L 576.308594 346.570312 C 576.699219 346.636719 577.066406 346.574219 577.414062 346.390625 C 577.761719 346.207031 578.019531 345.933594 578.183594 345.578125 C 578.347656 345.21875 578.386719 344.847656 578.300781 344.460938 C 578.214844 344.078125 578.019531 343.757812 577.714844 343.507812 L 575.425781 341.601562 C 575.121094 341.347656 574.773438 341.214844 574.378906 341.195312 C 573.984375 341.179688 573.625 341.285156 573.300781 341.511719 C 572.976562 341.742188 572.757812 342.042969 572.636719 342.417969 C 572.519531 342.796875 572.527344 343.171875 572.664062 343.539062 L 565.816406 351.757812 C 565.03125 351.636719 564.246094 351.648438 563.460938 351.785156 C 561.476562 351.835938 559.714844 352.484375 558.171875 353.738281 C 557.242188 354.808594 557.65625 354.992188 557.269531 356.097656 C 556.390625 358.628906 555.085938 357.507812 555.765625 359.789062 C 556.023438 360.722656 556.417969 361.59375 556.949219 362.402344 L 543.464844 378.589844 C 542.703125 378.375 541.921875 378.175781 541.132812 377.988281 C 534.933594 374.855469 528.566406 370.511719 521.6875 372.753906 C 520.996094 372.152344 520.21875 371.691406 519.355469 371.378906 C 518.492188 371.0625 517.601562 370.914062 516.683594 370.933594 C 514.960938 368.523438 514.035156 365.84375 513.898438 362.886719 C 514.191406 358.976562 515.894531 355.574219 515.902344 351.355469 C 515.804688 350.097656 515.5 348.894531 514.984375 347.742188 C 514.464844 346.589844 513.769531 345.558594 512.894531 344.648438 C 509.59375 341.191406 499.820312 340.476562 495.824219 343.25 C 495.097656 343.789062 494.492188 344.433594 494 345.1875 C 493.503906 345.941406 493.160156 346.757812 492.960938 347.636719 L 491.742188 351.953125 C 489.441406 353.03125 487.023438 353.691406 484.492188 353.933594 C 479.164062 354.425781 486.019531 355.429688 487.164062 355.558594 C 491.074219 355.945312 494.992188 356.019531 498.914062 355.78125 C 496.601562 356.71875 494.199219 357.171875 491.707031 357.136719 C 492.277344 364.699219 493.195312 365.613281 496.179688 371.097656 C 498.203125 374.808594 501.777344 373.535156 505.175781 371.621094 C 506.304688 370.988281 507.34375 370.230469 508.289062 369.351562 C 507.609375 370.632812 506.714844 371.742188 505.605469 372.679688 C 504.496094 373.613281 503.25 374.3125 501.875 374.769531 C 502.460938 378.429688 499.023438 379.828125 495.382812 381.183594 C 488.109375 383.886719 490.191406 385.414062 487.761719 390.0625 C 484.578125 396.480469 480.796875 402.523438 476.410156 408.1875 C 476.058594 408.613281 475.78125 409.082031 475.578125 409.597656 C 475.375 410.109375 475.261719 410.644531 475.230469 411.195312 C 475.203125 411.746094 475.257812 412.289062 475.40625 412.820312 C 475.550781 413.355469 475.773438 413.851562 476.078125 414.3125 C 477.867188 417.082031 479.824219 419.726562 481.945312 422.25 L 448.050781 422.25 L 430.066406 411.046875 C 428.53125 410.066406 426.855469 409.585938 425.03125 409.609375 L 409.089844 409.609375 C 408.351562 409.597656 407.625 409.675781 406.902344 409.835938 C 406.183594 410 405.492188 410.246094 404.832031 410.574219 C 404.171875 410.90625 403.558594 411.308594 402.996094 411.78125 C 402.429688 412.257812 401.929688 412.792969 401.496094 413.390625 L 399.207031 416.414062 C 398.351562 415.605469 395.890625 412.636719 394.941406 412.761719 L 386.027344 413.902344 C 385.445312 413.980469 384.984375 414.253906 384.640625 414.730469 L 294.914062 383.46875 C 294.761719 383.402344 294.441406 383.863281 294.648438 383.957031 L 299.445312 386.207031 C 313.296875 403.675781 327.121094 409.832031 344.792969 418.363281 C 347.773438 419.800781 350.808594 421.097656 353.898438 422.257812 L 344.304688 422.257812 C 318.597656 422.257812 294.5625 413.859375 291.175781 400.457031 C 291.113281 400.207031 290.988281 399.992188 290.804688 399.804688 C 290.625 399.621094 290.40625 399.496094 290.15625 399.429688 C 289.90625 399.363281 289.65625 399.363281 289.40625 399.433594 C 289.15625 399.5 288.941406 399.628906 288.761719 399.8125 C 260.738281 428.667969 271.320312 462.964844 315.527344 475.152344 C 287.492188 475.585938 268.765625 476.371094 268.765625 477.261719 C 268.78125 478.5 304.652344 479.535156 351.488281 479.71875 Z M 633.800781 440.621094 C 635.5625 430.136719 632.1875 420.058594 626.820312 411.53125 C 627.710938 410.585938 628.527344 409.578125 629.265625 408.511719 C 635.945312 416.898438 640.550781 427.234375 638.523438 438.054688 C 638.078125 440.066406 637.457031 442.023438 636.652344 443.917969 C 635.847656 445.816406 634.878906 447.625 633.742188 449.347656 C 632.609375 451.066406 631.324219 452.667969 629.894531 454.152344 C 628.464844 455.640625 626.910156 456.980469 625.234375 458.183594 C 627.460938 455.71875 629.300781 452.992188 630.757812 450.007812 C 632.214844 447.027344 633.230469 443.898438 633.804688 440.628906 Z M 574.285156 343.835938 L 575.238281 344.613281 L 567.570312 353.84375 C 567.46875 353.386719 567.292969 352.957031 567.046875 352.558594 Z M 279.441406 438.066406 C 277.410156 427.242188 282.015625 416.910156 288.699219 408.523438 C 289.4375 409.589844 290.253906 410.597656 291.144531 411.542969 C 285.777344 420.070312 282.402344 430.140625 284.160156 440.632812 C 284.734375 443.902344 285.75 447.03125 287.207031 450.015625 C 288.664062 453.003906 290.503906 455.726562 292.730469 458.195312 C 291.050781 456.996094 289.5 455.652344 288.066406 454.167969 C 286.636719 452.683594 285.355469 451.078125 284.21875 449.359375 C 283.082031 447.640625 282.113281 445.828125 281.3125 443.933594 C 280.507812 442.035156 279.886719 440.078125 279.441406 438.066406 Z M 475.019531 464.902344 C 471.304688 469.355469 466.390625 471.710938 461.085938 473.753906 L 458.363281 474.796875 C 456.007812 475.671875 453.804688 476.839844 451.761719 478.304688 C 449.71875 479.765625 447.90625 481.472656 446.320312 483.421875 L 433.367188 498.972656 C 432.90625 498.886719 432.441406 498.808594 431.980469 498.722656 L 445.25 482.792969 C 446.835938 480.84375 448.648438 479.140625 450.691406 477.675781 C 452.734375 476.214844 454.933594 475.042969 457.289062 474.167969 L 460.015625 473.125 C 465.328125 471.085938 470.246094 468.726562 473.960938 464.273438 L 495.910156 437.929688 C 496.21875 438.1875 496.546875 438.425781 496.886719 438.640625 L 496.898438 438.652344 Z M 573.660156 427.972656 C 586.421875 428.144531 598.796875 426.039062 610.78125 421.660156 C 611.613281 421.328125 612.457031 420.980469 613.304688 420.605469 C 610.742188 422.1875 608.0625 423.539062 605.269531 424.671875 C 599.570312 426.835938 593.714844 428.449219 587.710938 429.511719 C 581.703125 430.574219 575.652344 431.0625 569.554688 430.980469 L 505.996094 430.980469 L 508.503906 427.972656 Z M 561.878906 368.90625 C 559.777344 375.183594 553.5625 380.722656 553.566406 388.441406 C 552.8125 386.695312 552.621094 384.890625 552.992188 383.023438 C 551.535156 381.886719 549.953125 380.960938 548.246094 380.25 L 561.113281 364.8125 C 562.332031 365.152344 562.941406 365.714844 561.878906 368.90625 Z M 507.550781 423.9375 L 538.914062 386.296875 L 542.378906 382.140625 L 547.351562 376.167969 L 548.792969 374.4375 L 557.941406 363.453125 C 558.261719 363.71875 558.605469 363.941406 558.976562 364.125 L 552.085938 372.394531 L 547.351562 378.078125 L 539.855469 387.078125 L 509.160156 423.921875 L 504.859375 429.082031 C 504.566406 428.796875 504.253906 428.535156 503.921875 428.292969 Z M 490.753906 409.519531 C 492.699219 407.800781 494.035156 405.699219 494.761719 403.210938 C 493.707031 400.976562 493.382812 398.636719 493.78125 396.195312 C 494.222656 398.128906 494.964844 399.941406 496.003906 401.628906 C 497.042969 403.320312 498.324219 404.800781 499.847656 406.070312 C 502.171875 407.773438 502.058594 407.785156 502.328125 410.851562 C 502.488281 414.707031 502.132812 418.511719 501.257812 422.269531 L 496.574219 422.269531 C 497.097656 423.507812 497.683594 424.707031 498.289062 425.839844 C 499.128906 425.679688 499.949219 425.746094 500.753906 426.035156 C 501.554688 426.324219 502.230469 426.800781 502.773438 427.457031 C 498.636719 426.109375 496.761719 427.59375 495.136719 429.972656 C 495.359375 428.695312 495.917969 427.582031 496.808594 426.640625 C 494.878906 423.304688 493.796875 419.644531 491.914062 416.28125 C 491.171875 414.886719 490.25 413.621094 489.148438 412.484375 C 486.714844 412.226562 484.363281 412.5625 482.097656 413.484375 C 484.359375 411.128906 487.585938 411.757812 490.753906 409.523438 Z M 345.222656 417.484375 C 328.207031 409.273438 314.90625 403.746094 301.457031 387.144531 L 382.441406 416.574219 C 380.449219 416.78125 378.949219 420.535156 378.910156 422.257812 L 356.777344 422.257812 C 352.832031 420.894531 348.980469 419.304688 345.222656 417.492188 Z M 312.699219 424.664062 C 309.90625 423.535156 307.230469 422.179688 304.667969 420.597656 C 305.507812 420.980469 306.351562 421.320312 307.1875 421.652344 C 319.171875 426.03125 331.546875 428.136719 344.308594 427.964844 L 487.25 427.964844 C 488.304688 429 489.378906 430 490.476562 430.972656 L 348.417969 430.972656 C 342.320312 431.054688 336.265625 430.566406 330.261719 429.507812 C 324.253906 428.449219 318.402344 426.835938 312.699219 424.671875 Z M 410.425781 489.804688 C 404.414062 491.554688 398.3125 492.875 392.113281 493.761719 C 385.914062 494.644531 379.6875 495.089844 373.425781 495.089844 C 367.164062 495.089844 360.933594 494.644531 354.738281 493.761719 C 348.539062 492.875 342.433594 491.554688 336.425781 489.804688 C 336.3125 489.765625 336.203125 489.773438 336.097656 489.820312 C 335.992188 489.867188 335.914062 489.945312 335.867188 490.054688 C 335.820312 490.160156 335.820312 490.269531 335.855469 490.382812 C 335.894531 490.492188 335.96875 490.574219 336.070312 490.628906 C 338.945312 492.121094 341.898438 493.433594 344.929688 494.570312 C 347.964844 495.703125 351.054688 496.65625 354.199219 497.421875 C 357.347656 498.191406 360.527344 498.765625 363.742188 499.152344 C 366.957031 499.539062 370.1875 499.730469 373.425781 499.730469 C 376.664062 499.730469 379.890625 499.539062 383.105469 499.152344 C 386.324219 498.765625 389.503906 498.191406 392.648438 497.421875 C 395.796875 496.65625 398.886719 495.703125 401.917969 494.570312 C 404.953125 493.433594 407.90625 492.121094 410.78125 490.628906 C 410.878906 490.570312 410.945312 490.488281 410.984375 490.378906 C 411.019531 490.269531 411.015625 490.164062 410.96875 490.058594 C 410.925781 489.953125 410.847656 489.878906 410.746094 489.832031 C 410.640625 489.785156 410.535156 489.777344 410.425781 489.808594 Z M 351.253906 507.28125 C 347.261719 508.445312 343.203125 509.320312 339.082031 509.910156 C 334.960938 510.496094 330.820312 510.792969 326.660156 510.792969 C 322.496094 510.792969 318.355469 510.496094 314.238281 509.910156 C 310.117188 509.320312 306.058594 508.445312 302.0625 507.28125 C 301.953125 507.246094 301.84375 507.253906 301.738281 507.300781 C 301.632812 507.351562 301.554688 507.425781 301.511719 507.535156 C 301.464844 507.640625 301.460938 507.75 301.5 507.859375 C 301.539062 507.96875 301.609375 508.050781 301.710938 508.109375 C 303.628906 509.105469 305.601562 509.980469 307.628906 510.742188 C 309.652344 511.5 311.71875 512.136719 313.820312 512.648438 C 315.921875 513.160156 318.042969 513.546875 320.191406 513.804688 C 322.339844 514.0625 324.496094 514.191406 326.660156 514.191406 C 328.824219 514.191406 330.976562 514.0625 333.125 513.804688 C 335.273438 513.546875 337.398438 513.160156 339.5 512.648438 C 341.601562 512.136719 343.664062 511.5 345.691406 510.742188 C 347.714844 509.980469 349.6875 509.105469 351.609375 508.109375 C 351.707031 508.050781 351.777344 507.96875 351.8125 507.859375 C 351.851562 507.75 351.84375 507.640625 351.800781 507.535156 C 351.753906 507.433594 351.679688 507.359375 351.578125 507.308594 C 351.476562 507.261719 351.371094 507.253906 351.261719 507.28125 Z M 423.402344 513.84375 C 418.539062 515.261719 413.59375 516.328125 408.578125 517.046875 C 403.558594 517.761719 398.515625 518.121094 393.445312 518.121094 C 388.375 518.121094 383.332031 517.761719 378.316406 517.046875 C 373.296875 516.328125 368.355469 515.261719 363.488281 513.84375 C 363.378906 513.804688 363.269531 513.8125 363.164062 513.863281 C 363.054688 513.910156 362.980469 513.988281 362.9375 514.097656 C 362.890625 514.203125 362.886719 514.308594 362.921875 514.417969 C 362.957031 514.527344 363.027344 514.613281 363.128906 514.667969 C 365.460938 515.878906 367.855469 516.945312 370.316406 517.867188 C 372.777344 518.792969 375.285156 519.5625 377.839844 520.1875 C 380.390625 520.808594 382.972656 521.277344 385.582031 521.589844 C 388.191406 521.90625 390.8125 522.0625 393.4375 522.0625 C 396.066406 522.0625 398.6875 521.90625 401.296875 521.589844 C 403.90625 521.277344 406.488281 520.808594 409.039062 520.1875 C 411.59375 519.5625 414.101562 518.792969 416.5625 517.867188 C 419.023438 516.945312 421.417969 515.878906 423.75 514.667969 C 423.851562 514.609375 423.917969 514.527344 423.957031 514.417969 C 423.992188 514.308594 423.988281 514.203125 423.941406 514.097656 C 423.894531 513.996094 423.824219 513.921875 423.722656 513.875 C 423.621094 513.828125 423.515625 513.820312 423.40625 513.851562 Z M 423.402344 513.84375 " fill-opacity="1" fill-rule="nonzero"/></g></svg>